<svg xmlns="http://www.w3.org/2000/svg" width="24" height="24" viewBox="0 0 24 24">
  <path fill-rule="evenodd" d="m11.914 22-1.119-1.01c-1.928-1.764-3.52-3.287-4.774-4.57-1.256-1.282-2.256-2.428-3.002-3.438-.746-1.01-1.269-1.923-1.569-2.742A7.165 7.165 0 0 1 1 7.757c0-1.637.55-3.006 1.65-4.106C3.752 2.55 5.112 2 6.73 2c1.037 0 1.996.246 2.878.737.883.49 1.651 1.2 2.306 2.128.764-.982 1.574-1.705 2.428-2.17A5.69 5.69 0 0 1 17.098 2c1.62 0 2.979.55 4.08 1.65 1.1 1.101 1.65 2.47 1.65 4.107 0 .837-.15 1.665-.45 2.483-.3.819-.823 1.733-1.569 2.742-.746 1.01-1.746 2.156-3.001 3.438-1.256 1.283-2.847 2.806-4.775 4.57L11.914 22Zm0-2.155c1.837-1.692 3.352-3.143 4.543-4.352 1.191-1.21 2.137-2.27 2.838-3.18.7-.909 1.191-1.718 1.473-2.428a5.719 5.719 0 0 0 .423-2.128c0-1.2-.382-2.187-1.146-2.96-.764-.773-1.746-1.16-2.947-1.16-.927 0-1.791.287-2.592.86-.8.573-1.446 1.378-1.937 2.414h-1.337c-.473-1.018-1.11-1.819-1.91-2.4-.8-.583-1.664-.874-2.592-.874-1.2 0-2.183.387-2.947 1.16-.764.773-1.146 1.76-1.146 2.96 0 .71.141 1.424.423 2.142.282.719.773 1.537 1.473 2.456.7.918 1.651 1.978 2.852 3.178 1.2 1.201 2.71 2.638 4.53 4.312Z" clip-rule="evenodd"/>
</svg>
