<svg xmlns="http://www.w3.org/2000/svg" width="24" height="24" viewBox="0 0 24 24">
  <path fill-rule="evenodd" d="m20.778 22-7.306-7.306a6.12 6.12 0 0 1-1.944 1.125 6.875 6.875 0 0 1-2.361.403c-2 0-3.695-.694-5.084-2.083C2.694 12.75 2 11.074 2 9.11c0-1.963.694-3.639 2.083-5.028C5.473 2.694 7.157 2 9.14 2c1.963 0 3.634.694 5.014 2.083 1.38 1.39 2.07 3.065 2.07 5.028 0 .796-.13 1.565-.39 2.306a7.05 7.05 0 0 1-1.166 2.083L22 20.778 20.778 22Zm-11.64-7.444c1.5 0 2.779-.533 3.834-1.598 1.056-1.065 1.584-2.347 1.584-3.847s-.528-2.782-1.584-3.847C11.917 4.199 10.64 3.667 9.14 3.667c-1.519 0-2.81.532-3.875 1.597S3.667 7.61 3.667 9.11s.532 2.782 1.597 3.847 2.356 1.598 3.875 1.598Z" clip-rule="evenodd"/>
</svg>
