<svg xmlns="http://www.w3.org/2000/svg" width="24" height="24" viewBox="0 0 24 24">
  <path fill-rule="evenodd" d="M4.5 20.5v-13 13ZM9.75 6h4.5v-.25c0-.633-.217-1.167-.65-1.6-.433-.433-.967-.65-1.6-.65-.633 0-1.167.217-1.6.65-.433.433-.65.967-.65 1.6V6ZM4.5 20.5h15.216v-13H15.75v.25a.732.732 0 0 1-.212.538A.732.732 0 0 1 15 8.5a.732.732 0 0 1-.538-.212.732.732 0 0 1-.212-.538V7.5h-4.5v.25a.732.732 0 0 1-.212.538A.732.732 0 0 1 9 8.5a.732.732 0 0 1-.538-.212.732.732 0 0 1-.212-.538V7.5H4.5v13Zm0 1.5c-.4 0-.75-.15-1.05-.45-.3-.3-.45-.65-.45-1.05v-13c0-.4.15-.75.45-1.05.3-.3.65-.45 1.05-.45h3.75v-.25c0-1.05.363-1.937 1.087-2.663C10.062 2.363 10.95 2 12 2c1.05 0 1.938.363 2.663 1.087.724.726 1.087 1.613 1.087 2.663V6h3.966c.4 0 .75.15 1.05.45.3.3.45.65.45 1.05v13c0 .4-.15.75-.45 1.05-.3.3-.65.45-1.05.45H4.5Z" clip-rule="evenodd"/>
</svg>
