<svg xmlns="http://www.w3.org/2000/svg" width="24" height="24" viewBox="0 0 24 24">
  <path fill-rule="evenodd" d="M11.309 3.687c-.963 0-1.68.269-2.258.846-.577.577-.847 1.295-.847 2.258 0 .963.27 1.68.847 2.257.577.578 1.295.847 2.258.847.962 0 1.68-.27 2.257-.846.578-.578.847-1.296.847-2.258s-.27-1.68-.846-2.258c-.578-.577-1.296-.846-2.258-.846Zm0 7.896c-1.4 0-2.562-.451-3.451-1.341-.89-.89-1.341-2.05-1.341-3.451 0-1.4.452-2.562 1.341-3.451.89-.89 2.05-1.34 3.45-1.34 1.4 0 2.562.45 3.451 1.34.89.89 1.342 2.05 1.342 3.45 0 1.4-.452 2.562-1.342 3.452-.888.89-2.05 1.34-3.45 1.34Zm-8.622 8.73H19.93v-1.287c0-.46-.093-.808-.295-1.095a2.138 2.138 0 0 0-.894-.733 25.975 25.975 0 0 0-3.875-1.347c-2.35-.598-4.776-.59-7.147-.012-1.222.298-2.518.752-3.855 1.35-.36.168-.644.407-.881.742-.202.286-.296.634-.296 1.095v1.287ZM21.617 22H1v-2.974c0-.814.197-1.49.603-2.066a3.852 3.852 0 0 1 1.56-1.306c1.441-.645 2.835-1.133 4.156-1.455 2.638-.644 5.348-.649 7.963.017 1.311.332 2.705.817 4.142 1.439.659.297 1.19.735 1.59 1.305.407.577.604 1.252.604 2.066V22Z" clip-rule="evenodd"/>
</svg>
